<?xml version="1.0" standalone="no"?>
<!DOCTYPE svg PUBLIC "-//W3C//DTD SVG 20010904//EN"
 "http://www.w3.org/TR/2001/REC-SVG-20010904/DTD/svg10.dtd">
<svg version="1.0" xmlns="http://www.w3.org/2000/svg"
 width="960.000000pt" height="960.000000pt" viewBox="0 0 960.000000 960.000000"
 preserveAspectRatio="xMidYMid meet">
<metadata>
Created by potrace 1.14, written by Peter Selinger 2001-2017
</metadata>
<g transform="translate(0.000000,960.000000) scale(0.100000,-0.100000)"
fill="#000000" stroke="none">
<path d="M1779 9596 c-2 -2 -42 -6 -89 -10 -102 -8 -178 -19 -345 -51 -159
-30 -393 -119 -549 -208 -327 -187 -582 -527 -692 -922 -20 -72 -34 -125 -38
-145 -2 -14 -10 -50 -16 -80 -6 -30 -13 -73 -16 -95 -3 -22 -7 -50 -10 -62 -2
-13 -8 -60 -12 -105 -9 -108 -9 -6130 0 -6228 57 -581 247 -997 586 -1278 269
-223 619 -351 1087 -399 103 -10 6112 -11 6225 0 96 9 122 12 235 32 127 23
135 24 230 51 516 144 871 453 1058 919 39 98 89 257 101 325 3 14 10 50 16
80 6 30 13 73 16 95 3 22 7 50 10 62 2 13 8 60 12 105 10 113 9 6110 -1 6223
-32 361 -121 667 -257 891 -22 36 -40 68 -40 71 0 4 -49 72 -60 83 -3 3 -21
25 -41 50 -159 197 -383 352 -663 456 -92 34 -293 87 -376 99 -24 4 -47 8 -50
10 -3 1 -36 6 -75 10 -38 4 -83 10 -100 13 -34 6 -6139 14 -6146 8z"/>
</g>
</svg>
